<svg width="21" height="16" viewBox="0 0 21 16" fill="none" xmlns="http://www.w3.org/2000/svg">
<path d="M4.87295 6.33789H3.46557C2.98177 6.33789 2.58594 6.69083 2.58594 7.1222V13.883C2.58594 14.3144 2.98177 14.6673 3.46557 14.6673H4.87295C5.35675 14.6673 5.75258 14.3144 5.75258 13.883V7.1222C5.75258 6.69083 5.35675 6.33789 4.87295 6.33789Z" fill="#DD3331" stroke="#DD3331" stroke-linecap="round" stroke-linejoin="round"/>
<path d="M11.2089 3.83594H9.8015C9.31771 3.83594 8.92188 4.18888 8.92188 4.62025V13.883C8.92188 14.3144 9.31771 14.6673 9.8015 14.6673H11.2089C11.6927 14.6673 12.0885 14.3144 12.0885 13.883V4.62025C12.0885 4.18888 11.6927 3.83594 11.2089 3.83594Z" fill="#949494" stroke="#949494" stroke-linecap="round" stroke-linejoin="round"/>
<path d="M17.537 1.33398H16.1296C15.6458 1.33398 15.25 1.68693 15.25 2.1183V13.883C15.25 14.3144 15.6458 14.6673 16.1296 14.6673H17.537C18.0208 14.6673 18.4166 14.3144 18.4166 13.883V2.1183C18.4166 1.68693 18.0208 1.33398 17.537 1.33398Z" fill="#949494" stroke="#949494" stroke-linecap="round" stroke-linejoin="round"/>
</svg>
