<svg width="20" height="16" viewBox="0 0 20 16" fill="none" xmlns="http://www.w3.org/2000/svg">
<path d="M4.37295 6.33789H2.96557C2.48177 6.33789 2.08594 6.69083 2.08594 7.1222V13.883C2.08594 14.3144 2.48177 14.6673 2.96557 14.6673H4.37295C4.85675 14.6673 5.25258 14.3144 5.25258 13.883V7.1222C5.25258 6.69083 4.85675 6.33789 4.37295 6.33789Z" fill="#1D9F78" stroke="#1D9F78" stroke-linecap="round" stroke-linejoin="round"/>
<path d="M10.7089 3.83594H9.3015C8.81771 3.83594 8.42188 4.18888 8.42188 4.62025V13.883C8.42188 14.3144 8.81771 14.6673 9.3015 14.6673H10.7089C11.1927 14.6673 11.5885 14.3144 11.5885 13.883V4.62025C11.5885 4.18888 11.1927 3.83594 10.7089 3.83594Z" fill="#1D9F78" stroke="#1D9F78" stroke-linecap="round" stroke-linejoin="round"/>
<path d="M17.037 1.33398H15.6296C15.1458 1.33398 14.75 1.68693 14.75 2.1183V13.883C14.75 14.3144 15.1458 14.6673 15.6296 14.6673H17.037C17.5208 14.6673 17.9166 14.3144 17.9166 13.883V2.1183C17.9166 1.68693 17.5208 1.33398 17.037 1.33398Z" fill="#1D9F78" stroke="#1D9F78" stroke-linecap="round" stroke-linejoin="round"/>
</svg>
