<svg width="24" height="24" viewBox="0 0 24 24" fill="none" xmlns="http://www.w3.org/2000/svg">
<path d="M5.24442 9.50586H3.55556C2.975 9.50586 2.5 10.0353 2.5 10.6823V20.8235C2.5 21.4706 2.975 22 3.55556 22H5.24442C5.82497 22 6.29997 21.4706 6.29997 20.8235V10.6823C6.29997 10.0353 5.82497 9.50586 5.24442 9.50586Z" fill="white" stroke="white" stroke-width="1.5" stroke-linecap="round" stroke-linejoin="round"/>
<path d="M12.8443 5.75293H11.1554C10.5749 5.75293 10.0999 6.28234 10.0999 6.9294V20.8235C10.0999 21.4706 10.5749 22 11.1554 22H12.8443C13.4248 22 13.8998 21.4706 13.8998 20.8235V6.9294C13.8998 6.28234 13.4248 5.75293 12.8443 5.75293Z" fill="white" stroke="white" stroke-width="1.5" stroke-linecap="round" stroke-linejoin="round"/>
<path d="M20.4444 2H18.7555C18.175 2 17.7 2.52941 17.7 3.17647V20.8235C17.7 21.4706 18.175 22 18.7555 22H20.4444C21.0249 22 21.4999 21.4706 21.4999 20.8235V3.17647C21.4999 2.52941 21.0249 2 20.4444 2Z" fill="white" stroke="white" stroke-width="1.5" stroke-linecap="round" stroke-linejoin="round"/>
</svg>
