<svg width="24" height="25" viewBox="0 0 24 25" fill="none" xmlns="http://www.w3.org/2000/svg">
<path d="M13.01 3.10177L18.91 5.72177C20.61 6.47177 20.61 7.71177 18.91 8.46177L13.01 11.0818C12.34 11.3818 11.24 11.3818 10.57 11.0818L4.67002 8.46177C2.97002 7.71177 2.97002 6.47177 4.67002 5.72177L10.57 3.10177C11.24 2.80177 12.34 2.80177 13.01 3.10177Z" stroke="#0A0A0A" stroke-width="1.5" stroke-linecap="round" stroke-linejoin="round"/>
<path d="M3 11.1818C3 12.0218 3.63 12.9918 4.4 13.3318L11.19 16.3518C11.71 16.5818 12.3 16.5818 12.81 16.3518L19.6 13.3318C20.37 12.9918 21 12.0218 21 11.1818" stroke="#0A0A0A" stroke-width="1.5" stroke-linecap="round" stroke-linejoin="round"/>
<path d="M3 16.1818C3 17.1118 3.55 17.9518 4.4 18.3318L11.19 21.3518C11.71 21.5818 12.3 21.5818 12.81 21.3518L19.6 18.3318C20.45 17.9518 21 17.1118 21 16.1818" stroke="#0A0A0A" stroke-width="1.5" stroke-linecap="round" stroke-linejoin="round"/>
</svg>
