<svg width="24" height="25" viewBox="0 0 24 25" fill="none" xmlns="http://www.w3.org/2000/svg">
<path d="M14 10.1181V13.0181H16.6C16.8 13.0181 16.9 13.2181 16.9 13.4181L16.5 15.3181C16.5 15.4181 16.3 15.5181 16.2 15.5181H14V22.8181H11V15.6181H9.3C9.1 15.6181 9 15.5181 9 15.3181V13.4181C9 13.2181 9.1 13.1181 9.3 13.1181H11V9.81812C11 8.11812 12.3 6.81812 14 6.81812H16.7C16.9 6.81812 17 6.91812 17 7.11812V9.51812C17 9.71812 16.9 9.81812 16.7 9.81812H14.3C14.1 9.81812 14 9.91812 14 10.1181Z" stroke="#0A0A0A" stroke-width="1.5" stroke-miterlimit="10" stroke-linecap="round"/>
<path d="M15 22.8181H9C4 22.8181 2 20.8181 2 15.8181V9.81812C2 4.81812 4 2.81812 9 2.81812H15C20 2.81812 22 4.81812 22 9.81812V15.8181C22 20.8181 20 22.8181 15 22.8181Z" stroke="#0A0A0A" stroke-width="1.5" stroke-linecap="round" stroke-linejoin="round"/>
</svg>
