<svg width="24" height="25" viewBox="0 0 24 25" fill="none" xmlns="http://www.w3.org/2000/svg">
<path d="M8.87705 10.4753H6.21311V18.9999H8.87705V10.4753ZM9.1168 7.54496C9.11821 7.34346 9.07991 7.14365 9.00409 6.95694C8.92827 6.77024 8.81642 6.6003 8.67493 6.45683C8.53343 6.31335 8.36506 6.19915 8.17943 6.12075C7.9938 6.04234 7.79454 6.00127 7.59303 5.99988H7.54508C7.1353 5.99988 6.7423 6.16266 6.45254 6.45242C6.16279 6.74218 6 7.13518 6 7.54496C6 7.95474 6.16279 8.34774 6.45254 8.6375C6.7423 8.92726 7.1353 9.09004 7.54508 9.09004C7.7466 9.095 7.94712 9.0602 8.13519 8.98764C8.32325 8.91507 8.49518 8.80616 8.64114 8.66713C8.7871 8.52809 8.90423 8.36166 8.98585 8.17734C9.06747 7.99303 9.11196 7.79443 9.1168 7.59291V7.54496ZM19 13.8212C19 11.2585 17.3697 10.2622 15.75 10.2622C15.2197 10.2356 14.6917 10.3486 14.2186 10.5898C13.7456 10.831 13.3441 11.192 13.0541 11.6368H12.9795V10.4753H10.4754V18.9999H13.1393V14.4659C13.1008 14.0015 13.2471 13.5407 13.5464 13.1836C13.8457 12.8264 14.2738 12.6018 14.7377 12.5585H14.8389C15.6861 12.5585 16.3148 13.0913 16.3148 14.4339V18.9999H18.9787L19 13.8212Z" stroke="#0A0A0A" stroke-width="1.3" stroke-linejoin="round"/>
<path d="M15 22.8181H9C4 22.8181 2 20.8181 2 15.8181V9.81812C2 4.81812 4 2.81812 9 2.81812H15C20 2.81812 22 4.81812 22 9.81812V15.8181C22 20.8181 20 22.8181 15 22.8181Z" stroke="#0A0A0A" stroke-width="1.5" stroke-linecap="round" stroke-linejoin="round"/>
</svg>
