<svg width="24" height="24" viewBox="0 0 24 24" fill="none" xmlns="http://www.w3.org/2000/svg">
<path d="M18.9249 19.9226C14.8215 24.0261 8.18034 24.0255 4.07736 19.9226C-0.026107 15.819 -0.0254658 9.1779 4.07736 5.07508C4.39767 4.75461 4.91699 4.75461 5.2373 5.07508C5.55777 5.39539 5.55777 5.91471 5.2373 6.23502C1.7751 9.69722 1.77558 15.3008 5.2373 18.7625C8.69967 22.2251 14.3033 22.2244 17.765 18.7627C21.2273 15.3003 21.2269 9.69674 17.765 6.23502C17.4447 5.91471 17.4447 5.39523 17.765 5.07508C18.0853 4.75477 18.6046 4.75461 18.9249 5.07508C23.0285 9.17854 23.0279 15.8197 18.9249 19.9226ZM11.5012 13.319C11.9542 13.319 12.3215 12.9518 12.3215 12.4988V2.82024C12.3215 2.36726 11.9542 2 11.5012 2C11.0482 2 10.681 2.36726 10.681 2.82024V12.4988C10.681 12.9518 11.0482 13.319 11.5012 13.319Z" fill="#0A0A0A"/>
</svg>
