<svg width="24" height="25" viewBox="0 0 24 25" fill="none" xmlns="http://www.w3.org/2000/svg">
<path d="M9.16006 11.6477C9.06006 11.6377 8.94006 11.6377 8.83006 11.6477C6.45006 11.5677 4.56006 9.61771 4.56006 7.21771C4.56006 4.76771 6.54006 2.77771 9.00006 2.77771C11.4501 2.77771 13.4401 4.76771 13.4401 7.21771C13.4301 9.61771 11.5401 11.5677 9.16006 11.6477Z" stroke="#0A0A0A" stroke-width="1.5" stroke-linecap="round" stroke-linejoin="round"/>
<path d="M16.4098 4.77771C18.3498 4.77771 19.9098 6.34771 19.9098 8.27771C19.9098 10.1677 18.4098 11.7077 16.5398 11.7777C16.4598 11.7677 16.3698 11.7677 16.2798 11.7777" stroke="#0A0A0A" stroke-width="1.5" stroke-linecap="round" stroke-linejoin="round"/>
<path d="M4.16021 15.3377C1.74021 16.9577 1.74021 19.5977 4.16021 21.2077C6.91021 23.0477 11.4202 23.0477 14.1702 21.2077C16.5902 19.5877 16.5902 16.9477 14.1702 15.3377C11.4302 13.5077 6.92021 13.5077 4.16021 15.3377Z" stroke="#0A0A0A" stroke-width="1.5" stroke-linecap="round" stroke-linejoin="round"/>
<path d="M18.3398 20.7777C19.0598 20.6277 19.7398 20.3377 20.2998 19.9077C21.8598 18.7377 21.8598 16.8077 20.2998 15.6377C19.7498 15.2177 19.0798 14.9377 18.3698 14.7777" stroke="#0A0A0A" stroke-width="1.5" stroke-linecap="round" stroke-linejoin="round"/>
</svg>
