<svg width="24" height="24" viewBox="0 0 24 24" fill="none" xmlns="http://www.w3.org/2000/svg">
<path d="M12 20.4998H7C4 20.4998 2 18.9998 2 15.4998V8.49976C2 4.99976 4 3.49976 7 3.49976H17C20 3.49976 22 4.99976 22 8.49976V11.4998" stroke="#0A0A0A" stroke-width="1.5" stroke-miterlimit="10" stroke-linecap="round" stroke-linejoin="round"/>
<path d="M17 8.99976L13.87 11.4998C12.84 12.3198 11.15 12.3198 10.12 11.4998L7 8.99976" stroke="#0A0A0A" stroke-width="1.5" stroke-miterlimit="10" stroke-linecap="round" stroke-linejoin="round"/>
<path d="M19.21 14.7698L15.6701 18.3098C15.5301 18.4498 15.4 18.7098 15.37 18.8998L15.18 20.2498C15.11 20.7398 15.45 21.0798 15.94 21.0098L17.29 20.8198C17.48 20.7898 17.75 20.6598 17.88 20.5198L21.4201 16.9798C22.0301 16.3698 22.3201 15.6598 21.4201 14.7598C20.5301 13.8698 19.82 14.1598 19.21 14.7698Z" stroke="#0A0A0A" stroke-width="1.5" stroke-miterlimit="10" stroke-linecap="round" stroke-linejoin="round"/>
<path d="M18.7 15.2798C19 16.3598 19.84 17.1998 20.92 17.4998" stroke="#0A0A0A" stroke-width="1.5" stroke-miterlimit="10" stroke-linecap="round" stroke-linejoin="round"/>
</svg>
