<svg width="24" height="25" viewBox="0 0 24 25" fill="none" xmlns="http://www.w3.org/2000/svg">
<path d="M5.63012 13.9689L5.62012 18.6589C5.62012 19.9289 6.60012 21.2889 7.80012 21.6889L10.9901 22.7489C11.5401 22.9289 12.4501 22.9289 13.0101 22.7489L16.2001 21.6889C17.4001 21.2889 18.3801 19.9289 18.3801 18.6589V14.0189" stroke="#8E8E93" stroke-width="1.5" stroke-linecap="round" stroke-linejoin="round"/>
<path d="M21.3999 15.8889V9.88892" stroke="#8E8E93" stroke-width="1.5" stroke-linecap="round" stroke-linejoin="round"/>
<path d="M10.05 3.41895L4.03002 7.34895C2.10002 8.60895 2.10002 11.429 4.03002 12.689L10.05 16.619C11.13 17.329 12.91 17.329 13.99 16.619L19.98 12.689C21.9 11.429 21.9 8.61895 19.98 7.35895L13.99 3.42895C12.91 2.70895 11.13 2.70895 10.05 3.41895Z" stroke="#8E8E93" stroke-width="1.5" stroke-linecap="round" stroke-linejoin="round"/>
</svg>
