<svg width="24" height="25" viewBox="0 0 24 25" fill="none" xmlns="http://www.w3.org/2000/svg">
<path d="M22 6.74272C21.2645 7.06862 20.4744 7.28883 19.6438 7.38836C20.4911 6.88101 21.1412 6.07593 21.4477 5.1176C20.655 5.58796 19.7768 5.92972 18.8422 6.11293C18.0935 5.31666 17.0277 4.81812 15.8474 4.81812C13.582 4.81812 11.7446 6.65552 11.7446 8.92276C11.7446 9.24338 11.7816 9.55519 11.8503 9.85643C8.43883 9.68467 5.41672 8.05074 3.39258 5.56858C3.04025 6.17635 2.83766 6.88101 2.83766 7.63147C2.83766 9.05488 3.56258 10.3118 4.66273 11.0473C3.98978 11.0253 3.35735 10.8412 2.80419 10.5338V10.5866C2.80419 12.5747 4.21792 14.2332 6.09583 14.6102C5.75055 14.7036 5.38853 14.7529 5.01506 14.7529C4.75081 14.7529 4.49273 14.7283 4.24258 14.6807C4.76491 16.3102 6.27993 17.4976 8.07593 17.5293C6.67101 18.6303 4.90144 19.2865 2.97948 19.2865C2.64829 19.2865 2.3215 19.2672 2 19.2293C3.81626 20.3946 5.97252 21.0728 8.28909 21.0728C15.8378 21.0728 19.9644 14.8208 19.9644 9.3984C19.9644 9.22224 19.96 9.04431 19.9521 8.86815C20.7536 8.28856 21.4495 7.56717 21.9982 6.74536L22 6.74272Z" stroke="#0A0A0A" stroke-width="1.5" stroke-linejoin="round"/>
</svg>
