<svg width="24" height="25" viewBox="0 0 24 25" fill="none" xmlns="http://www.w3.org/2000/svg">
<path d="M6.9 21.4181C8.4 22.3181 10.2 22.8181 12 22.8181C17.5 22.8181 22 18.3181 22 12.8181C22 7.31812 17.5 2.81812 12 2.81812C6.5 2.81812 2 7.31812 2 12.8181C2 14.6181 2.5 16.3181 3.3 17.8181L2.44044 21.1241C2.24572 21.873 2.93892 22.5499 3.68299 22.3373L6.9 21.4181Z" stroke="#0A0A0A" stroke-width="1.5" stroke-miterlimit="10" stroke-linecap="round" stroke-linejoin="round"/>
<path d="M16.5 15.6666C16.5 15.8286 16.4639 15.9951 16.3873 16.1571C16.3107 16.3191 16.2116 16.4721 16.0809 16.6161C15.86 16.8591 15.6167 17.0346 15.3418 17.1471C15.0714 17.2596 14.7784 17.3181 14.4629 17.3181C14.0033 17.3181 13.512 17.2101 12.9937 16.9896C12.4755 16.7691 11.9572 16.4721 11.4434 16.0986C10.9251 15.7206 10.4339 15.3021 9.9652 14.8386C9.501 14.3706 9.08187 13.8801 8.70781 13.3671C8.33826 12.8541 8.04081 12.3411 7.82449 11.8326C7.60816 11.3196 7.5 10.8291 7.5 10.3611C7.5 10.0551 7.55408 9.76262 7.66224 9.49262C7.77041 9.21812 7.94166 8.96612 8.18052 8.74112C8.46895 8.45762 8.78443 8.31812 9.11793 8.31812C9.24412 8.31812 9.37031 8.34512 9.48297 8.39912C9.60015 8.45312 9.70381 8.53412 9.78493 8.65112L10.8305 10.1226C10.9116 10.2351 10.9702 10.3386 11.0108 10.4376C11.0513 10.5321 11.0739 10.6266 11.0739 10.7121C11.0739 10.8201 11.0423 10.9281 10.9792 11.0316C10.9206 11.1351 10.835 11.2431 10.7268 11.3511L10.3843 11.7066C10.3348 11.7561 10.3122 11.8146 10.3122 11.8866C10.3122 11.9226 10.3167 11.9541 10.3257 11.9901C10.3393 12.0261 10.3528 12.0531 10.3618 12.0801C10.4429 12.2286 10.5826 12.4221 10.7809 12.6561C10.9837 12.8901 11.2 13.1286 11.4344 13.3671C11.6778 13.6056 11.9121 13.8261 12.151 14.0286C12.3853 14.2266 12.5791 14.3616 12.7323 14.4426C12.7549 14.4516 12.7819 14.4651 12.8135 14.4786C12.8495 14.4921 12.8856 14.4966 12.9261 14.4966C13.0028 14.4966 13.0613 14.4696 13.1109 14.4201L13.4534 14.0826C13.5661 13.9701 13.6743 13.8846 13.7779 13.8306C13.8816 13.7676 13.9852 13.7361 14.0979 13.7361C14.1835 13.7361 14.2737 13.7541 14.3728 13.7946C14.472 13.8351 14.5756 13.8936 14.6883 13.9701L16.18 15.0276C16.2972 15.1086 16.3783 15.2031 16.4279 15.3156C16.473 15.4281 16.5 15.5406 16.5 15.6666Z" stroke="#0A0A0A" stroke-width="1.5" stroke-miterlimit="10"/>
</svg>
